<svg width="24" height="24" viewBox="0 0 24 24" fill="none" xmlns="http://www.w3.org/2000/svg">
<path d="M21 7H3C2.72386 7 2.5 7.22386 2.5 7.5V16.5C2.5 16.7761 2.72386 17 3 17H21C21.2761 17 21.5 16.7761 21.5 16.5V7.5C21.5 7.22386 21.2761 7 21 7Z" stroke="#DF8E3E" stroke-linecap="round" stroke-linejoin="round"/>
<path d="M22.5 5H1.5C0.947715 5 0.5 5.44772 0.5 6V18C0.5 18.5523 0.947715 19 1.5 19H22.5C23.0523 19 23.5 18.5523 23.5 18V6C23.5 5.44772 23.0523 5 22.5 5Z" stroke="#DF8E3E" stroke-linecap="round" stroke-linejoin="round"/>
<path d="M12 15C13.6569 15 15 13.6569 15 12C15 10.3431 13.6569 9 12 9C10.3431 9 9 10.3431 9 12C9 13.6569 10.3431 15 12 15Z" stroke="#DF8E3E" stroke-linecap="round" stroke-linejoin="round"/>
<path d="M4.99609 9.75C4.85802 9.75 4.74609 9.63807 4.74609 9.5C4.74609 9.36193 4.85802 9.25 4.99609 9.25" stroke="#DF8E3E"/>
<path d="M4.99609 9.75C5.13416 9.75 5.24609 9.63807 5.24609 9.5C5.24609 9.36193 5.13416 9.25 4.99609 9.25" stroke="#DF8E3E"/>
<path d="M18.9961 14.75C18.858 14.75 18.7461 14.6381 18.7461 14.5C18.7461 14.3619 18.858 14.25 18.9961 14.25" stroke="#DF8E3E"/>
<path d="M18.9961 14.75C19.1342 14.75 19.2461 14.6381 19.2461 14.5C19.2461 14.3619 19.1342 14.25 18.9961 14.25" stroke="#DF8E3E"/>
</svg>
