<svg width="20" height="20" viewBox="0 0 20 20" fill="none" xmlns="http://www.w3.org/2000/svg">
<path d="M18.3332 10H16.2665C15.9023 9.99924 15.5479 10.1178 15.2574 10.3375C14.967 10.5572 14.7565 10.866 14.6582 11.2167L12.6998 18.1834C12.6872 18.2266 12.6609 18.2646 12.6248 18.2917C12.5888 18.3187 12.5449 18.3334 12.4998 18.3334C12.4548 18.3334 12.4109 18.3187 12.3748 18.2917C12.3388 18.2646 12.3125 18.2266 12.2998 18.1834L7.69984 1.81669C7.68722 1.77341 7.6609 1.7354 7.62484 1.70835C7.58878 1.68131 7.54491 1.66669 7.49984 1.66669C7.45476 1.66669 7.4109 1.68131 7.37484 1.70835C7.33878 1.7354 7.31246 1.77341 7.29984 1.81669L5.3415 8.78335C5.24356 9.13265 5.03432 9.44045 4.74556 9.66003C4.45679 9.87961 4.10427 9.99898 3.7415 10H1.6665" stroke="#00BBA7" stroke-width="1.66667" stroke-linecap="round" stroke-linejoin="round"/>
</svg>
